<svg width="19" height="18" viewBox="0 0 19 18" fill="none" xmlns="http://www.w3.org/2000/svg">
<g id="user-plus-02">
<path id="Icon" d="M14.946 7.5V3M12.696 5.25H17.196M12.696 15.75V14.85C12.696 13.5899 12.696 12.9598 12.4508 12.4785C12.2351 12.0552 11.8909 11.711 11.4675 11.4952C10.9862 11.25 10.3562 11.25 9.09604 11.25H5.79604C4.53593 11.25 3.90587 11.25 3.42457 11.4952C3.0012 11.711 2.657 12.0552 2.44128 12.4785C2.19604 12.9598 2.19604 13.5899 2.19604 14.85V15.75M10.071 5.625C10.071 7.07475 8.89579 8.25 7.44604 8.25C5.9963 8.25 4.82104 7.07475 4.82104 5.625C4.82104 4.17525 5.9963 3 7.44604 3C8.89579 3 10.071 4.17525 10.071 5.625Z" stroke="#F5F5F5" stroke-width="1.35207" stroke-linecap="round" stroke-linejoin="round"/>
</g>
</svg>
