<svg width="17" height="18" viewBox="0 0 17 18" fill="none" xmlns="http://www.w3.org/2000/svg">
<g id="Icon">
<path d="M8.30395 11.25C9.54659 11.25 10.554 10.2426 10.554 9C10.554 7.75736 9.54659 6.75 8.30395 6.75C7.06131 6.75 6.05395 7.75736 6.05395 9C6.05395 10.2426 7.06131 11.25 8.30395 11.25Z" stroke="#F5F5F5" stroke-width="1.35207" stroke-linecap="round" stroke-linejoin="round"/>
<path d="M13.3494 11.0455C13.2586 11.2511 13.2316 11.4792 13.2717 11.7004C13.3118 11.9216 13.4172 12.1257 13.5744 12.2864L13.6153 12.3273C13.7421 12.4539 13.8427 12.6043 13.9113 12.7699C13.9799 12.9354 14.0153 13.1128 14.0153 13.292C14.0153 13.4712 13.9799 13.6487 13.9113 13.8142C13.8427 13.9798 13.7421 14.1302 13.6153 14.2568C13.4887 14.3836 13.3383 14.4842 13.1727 14.5528C13.0072 14.6214 12.8297 14.6568 12.6505 14.6568C12.4713 14.6568 12.2939 14.6214 12.1284 14.5528C11.9628 14.4842 11.8124 14.3836 11.6858 14.2568L11.6449 14.2159C11.4842 14.0587 11.2801 13.9533 11.0589 13.9132C10.8377 13.8731 10.6096 13.9001 10.404 13.9909C10.2023 14.0773 10.0303 14.2208 9.90916 14.4038C9.78802 14.5867 9.72301 14.8011 9.72214 15.0205V15.1364C9.72214 15.498 9.57847 15.8449 9.32274 16.1006C9.067 16.3563 8.72016 16.5 8.3585 16.5C7.99684 16.5 7.65 16.3563 7.39426 16.1006C7.13853 15.8449 6.99486 15.498 6.99486 15.1364V15.075C6.98958 14.8493 6.91654 14.6305 6.78521 14.4468C6.65389 14.2632 6.47037 14.1234 6.2585 14.0455C6.05285 13.9547 5.82473 13.9276 5.60355 13.9677C5.38237 14.0078 5.17828 14.1133 5.01759 14.2705L4.97668 14.3114C4.85004 14.4381 4.69964 14.5387 4.5341 14.6074C4.36856 14.676 4.19111 14.7113 4.01191 14.7113C3.83271 14.7113 3.65526 14.676 3.48972 14.6074C3.32418 14.5387 3.17378 14.4381 3.04714 14.3114C2.92035 14.1847 2.81977 14.0343 2.75115 13.8688C2.68252 13.7032 2.6472 13.5258 2.6472 13.3466C2.6472 13.1674 2.68252 12.9899 2.75115 12.8244C2.81977 12.6589 2.92035 12.5085 3.04714 12.3818L3.08805 12.3409C3.24523 12.1802 3.35067 11.9761 3.39078 11.7549C3.43088 11.5338 3.40381 11.3056 3.31305 11.1C3.22662 10.8983 3.08311 10.7264 2.90018 10.6052C2.71726 10.4841 2.5029 10.4191 2.2835 10.4182H2.16759C1.80593 10.4182 1.45909 10.2745 1.20335 10.0188C0.947624 9.76305 0.803955 9.4162 0.803955 9.05454C0.803955 8.69289 0.947624 8.34604 1.20335 8.09031C1.45909 7.83458 1.80593 7.69091 2.16759 7.69091H2.22895C2.45463 7.68563 2.6735 7.61258 2.85711 7.48126C3.04072 7.34993 3.18058 7.16641 3.2585 6.95455C3.34926 6.7489 3.37633 6.52078 3.33623 6.2996C3.29613 6.07842 3.19068 5.87433 3.0335 5.71364L2.99259 5.67273C2.86581 5.54608 2.76522 5.39569 2.6966 5.23015C2.62798 5.0646 2.59266 4.88716 2.59266 4.70795C2.59266 4.52875 2.62798 4.35131 2.6966 4.18576C2.76522 4.02022 2.86581 3.86983 2.99259 3.74318C3.11924 3.6164 3.26963 3.51582 3.43517 3.44719C3.60072 3.37857 3.77816 3.34325 3.95736 3.34325C4.13657 3.34325 4.31401 3.37857 4.47956 3.44719C4.6451 3.51582 4.79549 3.6164 4.92214 3.74318L4.96305 3.78409C5.12374 3.94127 5.32783 4.04672 5.54901 4.08682C5.77019 4.12692 5.99831 4.09985 6.20395 4.00909H6.2585C6.46016 3.92266 6.63215 3.77915 6.75329 3.59623C6.87443 3.4133 6.93944 3.19895 6.94032 2.97955V2.86364C6.94032 2.50198 7.08399 2.15513 7.33972 1.8994C7.59545 1.64367 7.9423 1.5 8.30395 1.5C8.66561 1.5 9.01246 1.64367 9.26819 1.8994C9.52392 2.15513 9.66759 2.50198 9.66759 2.86364V2.925C9.66847 3.1444 9.73348 3.35876 9.85462 3.54168C9.97576 3.72461 10.1477 3.86812 10.3494 3.95455C10.5551 4.04531 10.7832 4.07238 11.0044 4.03228C11.2255 3.99217 11.4296 3.88673 11.5903 3.72955L11.6312 3.68864C11.7579 3.56185 11.9083 3.46127 12.0738 3.39265C12.2394 3.32402 12.4168 3.2887 12.596 3.2887C12.7752 3.2887 12.9526 3.32402 13.1182 3.39265C13.2837 3.46127 13.4341 3.56185 13.5608 3.68864C13.6876 3.81528 13.7881 3.96567 13.8568 4.13122C13.9254 4.29676 13.9607 4.47421 13.9607 4.65341C13.9607 4.83261 13.9254 5.01006 13.8568 5.1756C13.7881 5.34114 13.6876 5.49154 13.5608 5.61818L13.5199 5.65909C13.3627 5.81978 13.2572 6.02387 13.2171 6.24505C13.177 6.46623 13.2041 6.69435 13.2949 6.9V6.95455C13.3813 7.15621 13.5248 7.32819 13.7077 7.44934C13.8907 7.57048 14.105 7.63549 14.3244 7.63636H14.4403C14.802 7.63636 15.1488 7.78003 15.4046 8.03576C15.6603 8.29149 15.804 8.63834 15.804 9C15.804 9.36166 15.6603 9.7085 15.4046 9.96424C15.1488 10.22 14.802 10.3636 14.4403 10.3636H14.379C14.1596 10.3645 13.9452 10.4295 13.7623 10.5507C13.5793 10.6718 13.4358 10.8438 13.3494 11.0455Z" stroke="#F5F5F5" stroke-width="1.35207" stroke-linecap="round" stroke-linejoin="round"/>
</g>
</svg>
